<?xml version="1.0"?>
<svg xmlns="http://www.w3.org/2000/svg" id="Layer_1" data-name="Layer 1" viewBox="0 0 512 512" width="512" height="512"><title>road map download travel map</title><path d="M416.912,394.742,387,422.581V339.638a6,6,0,1,0-12,0v82.943l-29.912-27.839a6,6,0,1,0-8.176,8.784l40,37.228a6,6,0,0,0,8.176,0l40-37.228a6,6,0,1,0-8.176-8.784Z"/><path d="M387,272.154V64a6,6,0,0,0-3.692-5.539l-120-50c-.062-.025-.124-.043-.187-.066s-.149-.056-.225-.081c-.16-.054-.321-.1-.482-.139-.055-.013-.108-.028-.163-.04A5.918,5.918,0,0,0,260.873,8l-.092,0q-.292.011-.582.05l-.169.026c-.176.029-.349.066-.521.111-.054.013-.108.025-.16.04a5.992,5.992,0,0,0-.649.224l-.008,0L141,57.5,23.308,8.461A6,6,0,0,0,15,14V338a6,6,0,0,0,3.692,5.539l120,50a5.845,5.845,0,0,0,.578.205c.019.006.039.009.058.015a5.946,5.946,0,0,0,.692.154c.073.012.145.023.218.032a5.814,5.814,0,0,0,.708.052c.019,0,.037,0,.056,0a6.013,6.013,0,0,0,.79-.059l.159-.023a6.019,6.019,0,0,0,.771-.172h.006q.292-.088.58-.207L261,344.5l10.759,4.483A116,116,0,1,0,387,272.154ZM147,271.9a5.992,5.992,0,0,0,3.081-11.576c-1.016-.3-2.045-.555-3.081-.774V68L255,23V98.58a19.563,19.563,0,0,1-7.211-3.931,6,6,0,1,0-7.844,9.081A31.577,31.577,0,0,0,255,110.91V334L147,379ZM27,23,135,68V258.4a26.436,26.436,0,0,1-11.673-4.751,6,6,0,0,0-7.033,9.724A38.365,38.365,0,0,0,135,270.489V379L27,334ZM267,334V111.41h5.358a6,6,0,0,0,0-12H267V23L375,68V272.154a116.2,116.2,0,0,0-98.616,65.755ZM381,492A104,104,0,1,1,485,388,104.118,104.118,0,0,1,381,492Z"/><path d="M76.994,266.9a26,26,0,1,0,26,26A26.029,26.029,0,0,0,76.994,266.9Zm0,40a14,14,0,1,1,14-14A14.015,14.015,0,0,1,76.994,306.9Z"/><path d="M306.578,248.107a26,26,0,1,0,26-26A26.029,26.029,0,0,0,306.578,248.107Zm40,0a14,14,0,1,1-14-14A14.015,14.015,0,0,1,346.578,248.107Z"/><path d="M224.471,232.515a6,6,0,0,0-8.485,0l-10.757,10.758-10.758-10.758A6,6,0,0,0,185.986,241l10.758,10.758-10.758,10.757A6,6,0,1,0,194.471,271l10.758-10.757L215.986,271a6,6,0,0,0,8.485-8.485l-10.758-10.757L224.471,241A6,6,0,0,0,224.471,232.515Z"/><path d="M205.1,314.638a6,6,0,0,0-7.411,4.132,10.215,10.215,0,0,1-15.21,5.87,6,6,0,1,0-6.354,10.18,22.144,22.144,0,0,0,11.742,3.357h0a22.291,22.291,0,0,0,21.362-16.128A6,6,0,0,0,205.1,314.638Z"/><path d="M76.994,256.16a6,6,0,0,0,6-6v-30a6,6,0,0,0-12,0v30A6,6,0,0,0,76.994,256.16Z"/><path d="M177.658,308.977V297.4a38.608,38.608,0,0,0-5.972-20.664,6,6,0,0,0-10.143,6.414,26.619,26.619,0,0,1,4.115,14.25v11.58a6,6,0,0,0,12,0Z"/><path d="M76.156,202.647a6,6,0,0,0,6.979-4.828,8.616,8.616,0,0,1,8.488-7.065,8.529,8.529,0,0,1,5.289,1.811,6,6,0,1,0,7.371-9.47,20.632,20.632,0,0,0-32.955,12.574A6,6,0,0,0,76.156,202.647Z"/><path d="M204.071,277.9a6,6,0,0,0-6,6v13.137a6,6,0,0,0,12,0V283.9A6,6,0,0,0,204.071,277.9Z"/><path d="M112.252,231.992v-22.5a6,6,0,0,0-12,0v22.5a38.947,38.947,0,0,0,1,8.79,6,6,0,1,0,11.689-2.715A26.842,26.842,0,0,1,112.252,231.992Z"/><path d="M240.9,77.81a20.787,20.787,0,0,0-20.786-18.89h0A20.849,20.849,0,0,0,209.361,61.9a6,6,0,0,0,6.184,10.284,8.85,8.85,0,0,1,4.561-1.26h0a8.835,8.835,0,0,1,8.84,8.023,6,6,0,0,0,5.966,5.434q.285,0,.574-.027A6,6,0,0,0,240.9,77.81Z"/><path d="M323.2,130.525a8.877,8.877,0,0,1-8.726,7.222h-9.4a6,6,0,0,0,0,12h9.4a20.883,20.883,0,0,0,20.519-17,6,6,0,0,0-11.793-2.218Z"/><path d="M205.229,123.892a6,6,0,0,0,6-6v-30a6,6,0,1,0-12,0v30A6,6,0,0,0,205.229,123.892Z"/><path d="M205.229,177.323a6,6,0,0,0,6-6v-30a6,6,0,0,0-12,0v30A6,6,0,0,0,205.229,177.323Z"/><path d="M205.229,230.754a6,6,0,0,0,6-6v-30a6,6,0,0,0-12,0v30A6,6,0,0,0,205.229,230.754Z"/><path d="M318.47,179.88a6,6,0,0,0-5.862,10.472,27.464,27.464,0,0,1,13.627,19.462,6,6,0,0,0,5.917,5.054,6.065,6.065,0,0,0,.955-.076,6,6,0,0,0,4.978-6.872A39.041,39.041,0,0,0,318.47,179.88Z"/><path d="M295.79,111.41h18.687a8.844,8.844,0,0,1,6.117,2.443,6,6,0,1,0,8.267-8.7,20.791,20.791,0,0,0-14.384-5.746H295.79a6,6,0,0,0,0,12Z"/><path d="M295.574,174.076a8.923,8.923,0,0,1-5.135-8.055V158.63a8.855,8.855,0,0,1,.641-3.325,6,6,0,0,0-11.127-4.492,20.791,20.791,0,0,0-1.514,7.814v7.394A20.963,20.963,0,0,0,290.5,184.952a6,6,0,0,0,5.07-10.876Z"/></svg>
